<mxfile host="65bd71144e">
    <diagram id="Ik3NYxnuBobwv1HHpMor" name="Page-1">
        <mxGraphModel dx="253" dy="296" grid="1" gridSize="10" guides="1" tooltips="1" connect="1" arrows="1" fold="1" page="1" pageScale="1" pageWidth="827" pageHeight="1169" math="0" shadow="0">
            <root>
                <mxCell id="0"/>
                <mxCell id="1" parent="0"/>
                <mxCell id="43" value="expelStudent" style="shape=umlFrame;whiteSpace=wrap;html=1;width=120;height=30;boundedLbl=1;verticalAlign=middle;align=left;spacingLeft=5;labelBackgroundColor=default;fontSize=11;" parent="1" vertex="1">
                    <mxGeometry x="31" y="70" width="762.5" height="960" as="geometry"/>
                </mxCell>
                <mxCell id="39" style="edgeStyle=none;html=1;entryX=0.5;entryY=0;entryDx=0;entryDy=0;fontSize=11;" parent="1" source="37" target="38" edge="1">
                    <mxGeometry relative="1" as="geometry"/>
                </mxCell>
                <mxCell id="37" value="arrowFunction" style="shape=umlFrame;whiteSpace=wrap;html=1;width=120;height=30;boundedLbl=1;verticalAlign=middle;align=left;spacingLeft=5;labelBackgroundColor=default;fontSize=11;" parent="1" vertex="1">
                    <mxGeometry x="243.5" y="510" width="380" height="400" as="geometry"/>
                </mxCell>
                <mxCell id="8" style="edgeStyle=none;html=1;entryX=0.5;entryY=0;entryDx=0;entryDy=0;" parent="1" source="3" target="7" edge="1">
                    <mxGeometry relative="1" as="geometry"/>
                </mxCell>
                <mxCell id="3" value="this.parentElement.parentElement" style="shape=note2;boundedLbl=1;whiteSpace=wrap;html=1;size=25;verticalAlign=top;align=center;" parent="1" vertex="1">
                    <mxGeometry x="83.5" y="120" width="240" height="60" as="geometry"/>
                </mxCell>
                <mxCell id="4" value="studentDetailsWrapper" style="resizeWidth=1;part=1;strokeColor=none;fillColor=none;align=left;spacingLeft=5;" parent="3" vertex="1">
                    <mxGeometry width="240" height="25" relative="1" as="geometry"/>
                </mxCell>
                <mxCell id="6" style="edgeStyle=none;html=1;entryX=0.528;entryY=0;entryDx=0;entryDy=0;entryPerimeter=0;" parent="1" source="5" target="43" edge="1">
                    <mxGeometry relative="1" as="geometry">
                        <mxPoint x="354.5" y="60" as="targetPoint"/>
                    </mxGeometry>
                </mxCell>
                <mxCell id="5" value="click eventListener" style="html=1;shape=mxgraph.infographic.ribbonSimple;notch1=20;notch2=0;align=center;verticalAlign=middle;fontSize=14;fontStyle=0;flipH=1;" parent="1" vertex="1">
                    <mxGeometry x="345.5" width="176" height="40" as="geometry"/>
                </mxCell>
                <mxCell id="7" value="remove(showDetails)" style="rounded=1;whiteSpace=wrap;html=1;" parent="1" vertex="1">
                    <mxGeometry x="123.5" y="210" width="160" height="60" as="geometry"/>
                </mxCell>
                <mxCell id="12" style="edgeStyle=none;html=1;entryX=0.5;entryY=0;entryDx=0;entryDy=0;" parent="1" source="9" target="11" edge="1">
                    <mxGeometry relative="1" as="geometry"/>
                </mxCell>
                <mxCell id="9" value="studentArray.filter" style="html=1;align=center;verticalAlign=top;rounded=1;absoluteArcSize=1;arcSize=10;dashed=0;" parent="1" vertex="1">
                    <mxGeometry x="363.5" y="120" width="140" height="40" as="geometry"/>
                </mxCell>
                <mxCell id="13" style="edgeStyle=none;html=1;fontSize=12;entryX=0;entryY=0.5;entryDx=0;entryDy=0;" parent="1" source="11" target="14" edge="1">
                    <mxGeometry relative="1" as="geometry">
                        <mxPoint x="553.5" y="253" as="targetPoint"/>
                    </mxGeometry>
                </mxCell>
                <mxCell id="18" style="edgeStyle=none;html=1;entryX=0.5;entryY=0;entryDx=0;entryDy=0;fontSize=12;" parent="1" source="11" target="17" edge="1">
                    <mxGeometry relative="1" as="geometry"/>
                </mxCell>
                <mxCell id="11" value="student.firstName&#10;== Fryderyk&#10;&amp;&amp;&#10;hackerMode&#10;== 1" style="rhombus;fontSize=12;labelBackgroundColor=default;" parent="1" vertex="1">
                    <mxGeometry x="371" y="190" width="125" height="125" as="geometry"/>
                </mxCell>
                <mxCell id="14" value="showMessages" style="html=1;align=center;verticalAlign=top;rounded=1;absoluteArcSize=1;arcSize=10;dashed=0;" parent="1" vertex="1">
                    <mxGeometry x="583.5" y="232.5" width="140" height="40" as="geometry"/>
                </mxCell>
                <mxCell id="15" value="[true]" style="text;html=1;align=center;verticalAlign=middle;resizable=0;points=[];autosize=1;strokeColor=none;fillColor=none;fontSize=12;" parent="1" vertex="1">
                    <mxGeometry x="496" y="230" width="40" height="20" as="geometry"/>
                </mxCell>
                <mxCell id="16" value="[else]" style="text;html=1;align=center;verticalAlign=middle;resizable=0;points=[];autosize=1;strokeColor=none;fillColor=none;fontSize=12;" parent="1" vertex="1">
                    <mxGeometry x="441.5" y="315" width="40" height="20" as="geometry"/>
                </mxCell>
                <mxCell id="26" style="edgeStyle=none;html=1;fontSize=11;" parent="1" source="17" edge="1">
                    <mxGeometry relative="1" as="geometry">
                        <mxPoint x="433.5" y="509.9999999999999" as="targetPoint"/>
                    </mxGeometry>
                </mxCell>
                <mxCell id="40" style="edgeStyle=none;html=1;fontSize=11;entryX=0;entryY=0.5;entryDx=0;entryDy=0;" parent="1" source="17" target="41" edge="1">
                    <mxGeometry relative="1" as="geometry">
                        <mxPoint x="563.5" y="413" as="targetPoint"/>
                    </mxGeometry>
                </mxCell>
                <mxCell id="49" style="edgeStyle=none;html=1;entryX=1.003;entryY=0.501;entryDx=0;entryDy=0;entryPerimeter=0;fontSize=11;dashed=1;" parent="1" source="17" target="21" edge="1">
                    <mxGeometry relative="1" as="geometry"/>
                </mxCell>
                <mxCell id="17" value="A" style="rhombus;fontSize=12;labelBackgroundColor=default;fontStyle=1" parent="1" vertex="1">
                    <mxGeometry x="371" y="350" width="125" height="125" as="geometry"/>
                </mxCell>
                <mxCell id="21" value="&lt;font style=&quot;font-size: 11px&quot;&gt;(student.firstName == firstNameField &amp;amp;&amp;amp;&lt;br&gt;student.lastName == lastNameField &amp;amp;&amp;amp;&lt;br&gt;student.isExpelled !== 1)&lt;br&gt;||&lt;br&gt;(student.firstName == firstNameField &amp;amp;&amp;amp; student.lastName == undefined &amp;amp;&amp;amp;&lt;br&gt;student.isExpelled !== 1)&lt;/font&gt;" style="shape=note2;boundedLbl=1;whiteSpace=wrap;html=1;size=25;verticalAlign=top;align=center;labelBackgroundColor=default;fontSize=13;" parent="1" vertex="1">
                    <mxGeometry x="120" y="333" width="203" height="159" as="geometry"/>
                </mxCell>
                <mxCell id="22" value="A - findClickedStudent" style="resizeWidth=1;part=1;strokeColor=none;fillColor=none;align=left;spacingLeft=5;labelBackgroundColor=default;fontSize=13;fontStyle=1;labelBorderColor=none;" parent="21" vertex="1">
                    <mxGeometry width="202.99999999999997" height="25" relative="1" as="geometry"/>
                </mxCell>
                <mxCell id="23" value="isExpelled = 1" style="html=1;align=center;verticalAlign=top;rounded=1;absoluteArcSize=1;arcSize=10;dashed=0;labelBackgroundColor=default;fontSize=11;" parent="1" vertex="1">
                    <mxGeometry x="458.5" y="540" width="140" height="40" as="geometry"/>
                </mxCell>
                <mxCell id="24" value="isInquisition = 0" style="html=1;align=center;verticalAlign=top;rounded=1;absoluteArcSize=1;arcSize=10;dashed=0;labelBackgroundColor=default;fontSize=11;" parent="1" vertex="1">
                    <mxGeometry x="458.5" y="590" width="140" height="40" as="geometry"/>
                </mxCell>
                <mxCell id="25" value="isPrefect = 0" style="html=1;align=center;verticalAlign=top;rounded=1;absoluteArcSize=1;arcSize=10;dashed=0;labelBackgroundColor=default;fontSize=11;" parent="1" vertex="1">
                    <mxGeometry x="458.5" y="640" width="140" height="40" as="geometry"/>
                </mxCell>
                <mxCell id="27" value="expelledArray.push" style="html=1;align=center;verticalAlign=top;rounded=1;absoluteArcSize=1;arcSize=10;dashed=0;labelBackgroundColor=default;fontSize=11;" parent="1" vertex="1">
                    <mxGeometry x="458.5" y="690" width="140" height="40" as="geometry"/>
                </mxCell>
                <mxCell id="36" style="edgeStyle=none;html=1;entryX=1;entryY=0.5;entryDx=0;entryDy=0;fontSize=11;" parent="1" source="28" target="31" edge="1">
                    <mxGeometry relative="1" as="geometry"/>
                </mxCell>
                <mxCell id="28" value="findIndex(studentArray)" style="html=1;align=center;verticalAlign=top;rounded=1;absoluteArcSize=1;arcSize=10;dashed=0;labelBackgroundColor=default;fontSize=11;" parent="1" vertex="1">
                    <mxGeometry x="458.5" y="740" width="140" height="40" as="geometry"/>
                </mxCell>
                <mxCell id="35" style="edgeStyle=none;html=1;entryX=1;entryY=0.5;entryDx=0;entryDy=0;fontSize=11;" parent="1" source="29" target="32" edge="1">
                    <mxGeometry relative="1" as="geometry"/>
                </mxCell>
                <mxCell id="29" value="findIndex(prefectArray)" style="html=1;align=center;verticalAlign=top;rounded=1;absoluteArcSize=1;arcSize=10;dashed=0;labelBackgroundColor=default;fontSize=11;" parent="1" vertex="1">
                    <mxGeometry x="458.5" y="790" width="140" height="40" as="geometry"/>
                </mxCell>
                <mxCell id="34" style="edgeStyle=none;html=1;entryX=1;entryY=0.5;entryDx=0;entryDy=0;fontSize=11;" parent="1" source="30" target="33" edge="1">
                    <mxGeometry relative="1" as="geometry"/>
                </mxCell>
                <mxCell id="30" value="findIndex(inquisitorArray)" style="html=1;align=center;verticalAlign=top;rounded=1;absoluteArcSize=1;arcSize=10;dashed=0;labelBackgroundColor=default;fontSize=11;" parent="1" vertex="1">
                    <mxGeometry x="458.5" y="840" width="140" height="40" as="geometry"/>
                </mxCell>
                <mxCell id="31" value="studentArray.splice" style="html=1;align=center;verticalAlign=top;rounded=1;absoluteArcSize=1;arcSize=10;dashed=0;labelBackgroundColor=default;fontSize=11;" parent="1" vertex="1">
                    <mxGeometry x="268.5" y="740" width="140" height="40" as="geometry"/>
                </mxCell>
                <mxCell id="32" value="prefectArray.splice" style="html=1;align=center;verticalAlign=top;rounded=1;absoluteArcSize=1;arcSize=10;dashed=0;labelBackgroundColor=default;fontSize=11;" parent="1" vertex="1">
                    <mxGeometry x="268.5" y="790" width="140" height="40" as="geometry"/>
                </mxCell>
                <mxCell id="33" value="inquisitorArray.splice" style="html=1;align=center;verticalAlign=top;rounded=1;absoluteArcSize=1;arcSize=10;dashed=0;labelBackgroundColor=default;fontSize=11;" parent="1" vertex="1">
                    <mxGeometry x="268.5" y="840" width="140" height="40" as="geometry"/>
                </mxCell>
                <mxCell id="38" value="showMessage" style="rounded=1;whiteSpace=wrap;html=1;" parent="1" vertex="1">
                    <mxGeometry x="353.5" y="940" width="160" height="60" as="geometry"/>
                </mxCell>
                <mxCell id="41" value="" style="ellipse;html=1;shape=endState;fillColor=#000000;strokeColor=#000000;labelBackgroundColor=default;fontSize=11;" parent="1" vertex="1">
                    <mxGeometry x="583.5" y="397.5" width="30" height="30" as="geometry"/>
                </mxCell>
                <mxCell id="44" style="edgeStyle=none;html=1;fontSize=11;entryX=0.5;entryY=0;entryDx=0;entryDy=0;" parent="1" source="43" target="46" edge="1">
                    <mxGeometry relative="1" as="geometry">
                        <mxPoint x="412.5" y="1070" as="targetPoint"/>
                    </mxGeometry>
                </mxCell>
                <mxCell id="46" value="showStudents" style="rounded=1;whiteSpace=wrap;html=1;" parent="1" vertex="1">
                    <mxGeometry x="332.25" y="1080" width="160" height="60" as="geometry"/>
                </mxCell>
                <mxCell id="47" value="[else]" style="text;html=1;align=center;verticalAlign=middle;resizable=0;points=[];autosize=1;strokeColor=none;fillColor=none;fontSize=12;" parent="1" vertex="1">
                    <mxGeometry x="496" y="384.5" width="40" height="20" as="geometry"/>
                </mxCell>
                <mxCell id="48" value="[studentFound]" style="text;html=1;align=center;verticalAlign=middle;resizable=0;points=[];autosize=1;strokeColor=none;fillColor=none;fontSize=12;" parent="1" vertex="1">
                    <mxGeometry x="436" y="482" width="100" height="20" as="geometry"/>
                </mxCell>
            </root>
        </mxGraphModel>
    </diagram>
</mxfile>